# xmcd CD database file
#
# Track frame offsets:
#	150
#	22615
#	44542
#	68440
#	89260
#
# Disc length: 1413 seconds
#
# Revision: 0
# Processed by: cddbd v1.4b41PL2 Copyright (c) Steve Scherf et al.
# Submitted via: Feurio! 1.61 - http://www.feurio.com
#
DISCID=2e058305
DTITLE=Various Artist - Thumbprints 99
DYEAR=1900
DGENRE=
TTITLE0=Mighty Mo Rodgers - No Regrets
TTITLE1=Lucky Petersen - Ta´ Ta´ You
TTITLE2=Joe Louis Walker - Trouble On Wheels
TTITLE3=Robben Ford - Lovin´ Cup
TTITLE4=Clarence "Gatemouth" Brown - Without You, Baby
EXTD=Blue Thumb Records
EXTT0=
EXTT1=
EXTT2=
EXTT3=
EXTT4=
PLAYORDER=
